<?xml version="1.0" encoding="utf-8"?>
<!-- Generator: Adobe Illustrator 26.0.1, SVG Export Plug-In . SVG Version: 6.00 Build 0)  -->
<svg version="1.1" id="Camada_1" xmlns="http://www.w3.org/2000/svg" xmlns:xlink="http://www.w3.org/1999/xlink" x="0px" y="0px"
	 viewBox="0 0 512 512" style="enable-background:new 0 0 512 512;" xml:space="preserve">
<style type="text/css">
	.st0{fill:#7048E8;}
</style>
<path class="st0" d="M32,432c0,26.5,21.5,48,48,48h352c26.5,0,48-21.5,48-48V160H32V432z M160,236c0-6.6,5.4-12,12-12h168
	c6.6,0,12,5.4,12,12v8c0,6.6-5.4,12-12,12H172c-6.6,0-12-5.4-12-12V236z M480,32H32C14.3,32,0,46.3,0,64v48c0,8.8,7.2,16,16,16h480
	c8.8,0,16-7.2,16-16V64C512,46.3,497.7,32,480,32z"/>
</svg>
