<?xml version="1.0" encoding="utf-8"?>
<!-- Generator: Adobe Illustrator 26.0.1, SVG Export Plug-In . SVG Version: 6.00 Build 0)  -->
<svg version="1.1" id="Camada_1" xmlns="http://www.w3.org/2000/svg" xmlns:xlink="http://www.w3.org/1999/xlink" x="0px" y="0px"
	 viewBox="0 0 512 512" style="enable-background:new 0 0 512 512;" xml:space="preserve">
<style type="text/css">
	.st0{fill:#7048E8;}
	.st1{fill:none;stroke:#7048E8;stroke-width:57;stroke-miterlimit:10;}
	.st2{fill:none;stroke:#7048E8;stroke-width:57;stroke-linecap:round;stroke-miterlimit:10;}
</style>
<path class="st0" d="M32,432c0,26.5,21.5,48,48,48h352c26.5,0,48-21.5,48-48V285.7H32V432z M160,362.1c0-6.6,5.4-12,12-12h168
	c6.6,0,12,5.4,12,12v8c0,6.6-5.4,12-12,12H172c-6.6,0-12-5.4-12-12V362.1z"/>
<line class="st1" x1="256" y1="245.4" x2="256" y2="79"/>
<polyline class="st2" points="345.5,169.5 256,79 167.5,172.5 "/>
</svg>
