<?xml version="1.0" encoding="utf-8"?>
<!-- Generator: Adobe Illustrator 26.0.1, SVG Export Plug-In . SVG Version: 6.00 Build 0)  -->
<svg version="1.1" id="Camada_1" xmlns="http://www.w3.org/2000/svg" xmlns:xlink="http://www.w3.org/1999/xlink" x="0px" y="0px"
	 viewBox="0 0 60 60" style="enable-background:new 0 0 60 60;" xml:space="preserve">
<style type="text/css">
	.st0{fill:none;stroke:#9775FA;stroke-width:3;stroke-linecap:round;stroke-miterlimit:10;}
</style>
<path class="st0" d="M6.44,11.65c0,0,13.18-9.08,15.18-8.08s-18,13-19,18s27.5-21.06,31-20s-33,27-32,30s37-29,40-27s-40,31-38,35
	s43-33,45-31s-43,35-41,38s44-36,46-32s-43,36-40,39s42-36,44-32s-39,32-37,35s37-29,38-26s-30,26-27,28s21-17,22-15s-8,11-8,11"/>
</svg>
