<?xml version="1.0" encoding="utf-8"?>
<!-- Generator: Adobe Illustrator 26.0.1, SVG Export Plug-In . SVG Version: 6.00 Build 0)  -->
<svg version="1.1" id="Camada_1" xmlns="http://www.w3.org/2000/svg" xmlns:xlink="http://www.w3.org/1999/xlink" x="0px" y="0px"
	 viewBox="0 0 63.4 63.3" style="enable-background:new 0 0 63.4 63.3;" xml:space="preserve">
<style type="text/css">
	.st0{fill:#9775FA;}
	.st1{fill:none;stroke:#000000;stroke-width:3;stroke-linecap:round;stroke-miterlimit:10;}
</style>
<g>
	<path class="st0" d="M17.3,16.8c-4.9,4.1-10.2,8.5-15.5,13c0.3-4.3,1.4-8.4,3.3-12c2.4-2,5-4.2,7.7-6.4c3.2-2.7,6.5-5.5,10-8.4
		c2.8-0.9,5.8-1.4,9-1.4c1.1,0,2.2,0.1,3.3,0.2C29.8,6.3,23.9,11.3,17.3,16.8z"/>
	<path class="st0" d="M24,23.4C16,30.2,9.1,36.1,3.2,41c-0.8-2.5-1.3-5.2-1.4-7.9c6-5.1,12.2-10.3,17.7-15c7-6,13.1-11.2,18.5-15.6
		c2.7,0.6,5.3,1.5,7.6,2.7C38.3,11.1,30.7,17.6,24,23.4z"/>
	<path class="st0" d="M28.5,31.2C21.7,36.7,13.9,42.9,7,48.8c-1.4-2-2.5-4.1-3.3-6.4c5.5-4.6,12.3-10.1,20.4-16.7
		C31.2,20,39.9,13,47.7,6.4c2,1.3,3.9,2.8,5.5,4.5C46.6,16.5,38.4,23.2,28.5,31.2z"/>
	<path class="st0" d="M61.7,32.2c-0.2,12.4-7.9,23-18.8,27.4c5.4-5.4,10.4-11.1,13.8-15.5c-3.3,2.7-7.1,5.9-10.3,8.7
		c-3.8,3.2-7.2,6.1-10.3,8.7c-1.4,0.2-2.9,0.3-4.4,0.3c-2.2,0-4.3-0.2-6.4-0.7c5.7-4.4,12.1-9.9,16.5-13.6
		C53,37.8,58.3,33.6,61.7,32.2z"/>
	<path class="st0" d="M37.1,35.9C27.3,43.7,19.3,50,12.7,55c-1.8-1.5-3.5-3.2-4.9-5.1c8.3-6.3,17.5-13.6,24.9-19.5
		c9.3-7.4,16.6-13.1,22.3-17.5c1.5,1.8,2.7,3.8,3.8,6C51.8,24.2,43.9,30.5,37.1,35.9z"/>
	<path class="st0" d="M47,39.5c-7.2,6.3-16.6,14.6-23.4,21.1c-2.5-0.7-4.8-1.7-7-3c5.4-5.4,13.7-12.8,25.7-23.5
		c5.3-4.6,11.3-9.9,16.7-14.8c1.1,2.3,1.8,4.8,2.2,7.4C57.3,30.4,52.6,34.6,47,39.5z"/>
</g>
<path class="st1" d="M61.7,31.7c0,0.2,0,0.3,0,0.5c-0.2,12.4-7.9,23-18.8,27.4c-2.1,0.9-4.4,1.5-6.8,1.8c-1.4,0.2-2.9,0.3-4.4,0.3
	c-2.2,0-4.3-0.2-6.4-0.7c-0.6-0.1-1.2-0.3-1.7-0.4c-2.5-0.7-4.8-1.7-7-3c-1.4-0.8-2.7-1.7-3.9-2.7c-1.8-1.5-3.5-3.2-4.9-5.1
	c-0.3-0.4-0.6-0.8-0.8-1.1c-1.4-2-2.5-4.1-3.3-6.4c-0.2-0.5-0.4-0.9-0.5-1.4c-0.8-2.5-1.3-5.2-1.4-7.9c0-0.4,0-0.9,0-1.3
	c0-0.6,0-1.3,0.1-1.9c0.3-4.3,1.4-8.4,3.3-12c3.6-7,10-12.4,17.6-14.8c2.8-0.9,5.8-1.4,9-1.4c1.1,0,2.2,0.1,3.3,0.2
	c1,0.1,2,0.3,2.9,0.5c2.7,0.6,5.3,1.5,7.6,2.7c0.8,0.4,1.5,0.8,2.2,1.3c2,1.3,3.9,2.8,5.5,4.5c0.6,0.7,1.2,1.3,1.8,2.1
	c1.5,1.8,2.7,3.8,3.8,6c0.1,0.2,0.2,0.3,0.2,0.5c1.1,2.3,1.8,4.8,2.2,7.4C61.6,28.4,61.7,30.1,61.7,31.7z"/>
</svg>
