<?xml version="1.0" encoding="utf-8"?>
<!-- Generator: Adobe Illustrator 26.0.1, SVG Export Plug-In . SVG Version: 6.00 Build 0)  -->
<svg version="1.1" id="Camada_1" xmlns="http://www.w3.org/2000/svg" xmlns:xlink="http://www.w3.org/1999/xlink" x="0px" y="0px"
	 viewBox="0 0 63.4 63.3" style="enable-background:new 0 0 63.4 63.3;" xml:space="preserve">
<style type="text/css">
	.st0{fill:#9775FA;}
	.st1{fill:none;stroke:#000000;stroke-width:3;stroke-linecap:round;stroke-miterlimit:10;}
	.st2{fill:none;stroke:#9775FA;stroke-width:7;stroke-linecap:round;stroke-miterlimit:10;}
	.st3{fill:none;stroke:#9775FA;stroke-width:3;stroke-linecap:round;stroke-miterlimit:10;}
</style>
<g>
	<path class="st0" d="M488.9,16.8c-4.9,4.1-10.2,8.5-15.5,13c0.3-4.3,1.4-8.4,3.3-12c2.4-2,5-4.2,7.7-6.4c3.2-2.7,6.5-5.5,10-8.4
		c2.8-0.9,5.8-1.4,9-1.4c1.1,0,2.2,0.1,3.3,0.2C501.4,6.3,495.6,11.3,488.9,16.8z"/>
	<path class="st0" d="M495.6,23.4c-8,6.9-14.9,12.7-20.8,17.6c-0.8-2.5-1.3-5.2-1.4-7.9c6-5.1,12.2-10.3,17.7-15
		c7-6,13.1-11.2,18.5-15.6c2.7,0.6,5.3,1.5,7.6,2.7C509.9,11.1,502.3,17.6,495.6,23.4z"/>
	<path class="st0" d="M500.1,31.2c-6.8,5.5-14.6,11.8-21.5,17.6c-1.4-2-2.5-4.1-3.3-6.4c5.5-4.6,12.3-10.1,20.4-16.7
		c7.2-5.8,15.8-12.7,23.7-19.4c2,1.3,3.9,2.8,5.5,4.5C518.2,16.5,510,23.2,500.1,31.2z"/>
	<path class="st0" d="M533.3,32.2c-0.2,12.4-7.9,23-18.8,27.4c5.4-5.4,10.4-11.1,13.8-15.5c-3.3,2.7-7.1,5.9-10.3,8.7
		c-3.8,3.2-7.2,6.1-10.3,8.7c-1.4,0.2-2.9,0.3-4.4,0.3c-2.2,0-4.3-0.2-6.4-0.7c5.7-4.4,12.1-9.9,16.5-13.6
		C524.7,37.8,529.9,33.6,533.3,32.2z"/>
	<path class="st0" d="M508.8,35.9c-9.8,7.8-17.9,14.1-24.4,19.1c-1.8-1.5-3.5-3.2-4.9-5.1c8.3-6.3,17.5-13.6,24.9-19.5
		c9.3-7.4,16.6-13.1,22.3-17.5c1.5,1.8,2.7,3.8,3.8,6C523.5,24.2,515.5,30.5,508.8,35.9z"/>
	<path class="st0" d="M518.6,39.5c-7.2,6.3-16.6,14.6-23.4,21.1c-2.5-0.7-4.8-1.7-7-3c5.4-5.4,13.7-12.8,25.7-23.5
		c5.3-4.6,11.3-9.9,16.7-14.8c1.1,2.3,1.8,4.8,2.2,7.4C528.9,30.4,524.2,34.6,518.6,39.5z"/>
</g>
<path class="st1" d="M533.3,31.7c0,0.2,0,0.3,0,0.5c-0.2,12.4-7.9,23-18.8,27.4c-2.1,0.9-4.4,1.5-6.8,1.8c-1.4,0.2-2.9,0.3-4.4,0.3
	c-2.2,0-4.3-0.2-6.4-0.7c-0.6-0.1-1.2-0.3-1.7-0.4c-2.5-0.7-4.8-1.7-7-3c-1.4-0.8-2.7-1.7-3.9-2.7c-1.8-1.5-3.5-3.2-4.9-5.1
	c-0.3-0.4-0.6-0.8-0.8-1.1c-1.4-2-2.5-4.1-3.3-6.4c-0.2-0.5-0.4-0.9-0.5-1.4c-0.8-2.5-1.3-5.2-1.4-7.9c0-0.4,0-0.9,0-1.3
	c0-0.6,0-1.3,0.1-1.9c0.3-4.3,1.4-8.4,3.3-12c3.6-7,10-12.4,17.6-14.8c2.8-0.9,5.8-1.4,9-1.4c1.1,0,2.2,0.1,3.3,0.2
	c1,0.1,2,0.3,2.9,0.5c2.7,0.6,5.3,1.5,7.6,2.7c0.8,0.4,1.5,0.8,2.2,1.3c2,1.3,3.9,2.8,5.5,4.5c0.6,0.7,1.2,1.3,1.8,2.1
	c1.5,1.8,2.7,3.8,3.8,6c0.1,0.2,0.2,0.3,0.2,0.5c1.1,2.3,1.8,4.8,2.2,7.4C533.2,28.4,533.3,30.1,533.3,31.7z"/>
<path class="st2" d="M203.9-41.2c0,0,31.7-21.8,36.5-19.4s-43.3,31.3-45.7,43.3s66.1-50.6,74.6-48.1c8.4,2.5-79.4,64.9-77,72.1
	s89-69.7,96.2-64.9S192.3,16.4,197.1,26c4.8,9.6,103.4-79.4,108.2-74.6c4.8,4.8-103.4,84.2-98.6,91.4c4.8,7.2,105.8-86.6,110.6-77
	c4.8,9.6-103.4,86.6-96.2,93.8s101-86.6,105.8-77c4.8,9.6-93.8,77-89,84.2s89-69.7,91.4-62.5s-72.1,62.5-64.9,67.3
	c7.2,4.8,50.5-40.9,52.9-36.1c2.4,4.8-19.2,26.5-19.2,26.5"/>
<circle class="st1" cx="284.4" cy="31.7" r="30"/>
<path class="st3" d="M8,13.4c0,0,13.2-9.1,15.2-8.1s-18,13-19,18s27.5-21.1,31-20s-33,27-32,30s37-29,40-27s-40,31-38,35
	s43-33,45-31s-43,35-41,38s44-36,46-32s-43,36-40,39s42-36,44-32s-39,32-37,35s37-29,38-26s-30,26-27,28s21-17,22-15s-8,11-8,11"/>
<circle class="st1" cx="31.7" cy="31.7" r="30"/>
</svg>
