<?xml version="1.0" encoding="utf-8"?>
<!-- Generator: Adobe Illustrator 26.0.1, SVG Export Plug-In . SVG Version: 6.00 Build 0)  -->
<svg version="1.1" id="Camada_1" xmlns="http://www.w3.org/2000/svg" xmlns:xlink="http://www.w3.org/1999/xlink" x="0px" y="0px"
	 viewBox="0 0 390.6 485.6" style="enable-background:new 0 0 390.6 485.6;" xml:space="preserve">
<style type="text/css">
	.st0{opacity:0.61;fill:none;stroke:#211915;stroke-width:11;stroke-miterlimit:10;}
	.st1{fill:#FFFFFF;stroke:#211915;stroke-width:11;stroke-miterlimit:10;}
	.st2{fill:#FFFFFF;stroke:#9775FA;stroke-width:25;stroke-linecap:round;stroke-miterlimit:10;}
</style>
<path class="st0" d="M246.6,480.1H27.1c-12,0-21.6-9.7-21.6-21.6c0,0,0,0,0,0V27.1c0-12,9.7-21.6,21.6-21.6c0,0,0,0,0,0h336.3
	c12,0,21.6,9.7,21.6,21.6c0,0,0,0,0,0v314.5c0,5.7-2.3,11.2-6.3,15.3L261.9,473.8C257.9,477.8,252.3,480.1,246.6,480.1z"/>
<path class="st1" d="M255.6,350.6"/>
<path class="st1" d="M385.1,350.6"/>
<path class="st0" d="M255.6,480.1V366.2c0-8.6,7-15.6,15.6-15.6h113.9"/>
<g>
	<line class="st2" x1="195.3" y1="107.8" x2="195.3" y2="267"/>
	<line class="st2" x1="274.9" y1="187.4" x2="115.7" y2="187.4"/>
</g>
</svg>
