<svg id="Camada_1" data-name="Camada 1" xmlns="http://www.w3.org/2000/svg" viewBox="0 0 390.56 485.59"><defs><style>.cls-1{fill:none;}.cls-1,.cls-2{stroke:#211915;stroke-miterlimit:10;stroke-width:11px;}.cls-2{fill:#fff;}</style></defs><path class="cls-1" d="M258.33,487.29H38.87a21.64,21.64,0,0,1-21.65-21.64V34.35A21.64,21.64,0,0,1,38.87,12.71H375.13a21.64,21.64,0,0,1,21.65,21.64v314.5a21.66,21.66,0,0,1-6.34,15.31L273.64,481A21.64,21.64,0,0,1,258.33,487.29Z" transform="translate(-11.72 -7.21)"/><path class="cls-2" d="M267.3,357.81" transform="translate(-11.72 -7.21)"/><path class="cls-2" d="M396.78,357.81" transform="translate(-11.72 -7.21)"/><path class="cls-1" d="M267.3,487.29V373.42a15.61,15.61,0,0,1,15.61-15.61H396.78" transform="translate(-11.72 -7.21)"/></svg>